<svg xmlns="http://www.w3.org/2000/svg" viewBox="0 0 360 620" width="360" height="620" role="img" aria-label="Five of Pentacles"><title>Five of Pentacles</title><rect width="360" height="620" rx="18" fill="#18230f"/><rect x="12" y="12" width="336" height="596" rx="12" fill="#223218" stroke="#d6c25f" stroke-width="2.5"/><rect x="20" y="20" width="320" height="580" rx="8" fill="none" stroke="#d6c25f" stroke-width="1" opacity="0.55"/><text x="180" y="66" font-family="Georgia, 'Times New Roman', serif" font-size="30" letter-spacing="2" text-anchor="middle" fill="#d6c25f">V</text><line x1="60" y1="84" x2="300" y2="84" stroke="#d6c25f" stroke-width="1" opacity="0.5"/><line x1="40" y1="540" x2="320" y2="540" stroke="#d6c25f" stroke-width="1" opacity="0.5"/><text x="180" y="580" font-family="Georgia, 'Times New Roman', serif" font-size="18" letter-spacing="1.5" text-anchor="middle" fill="#fbf6dc">FIVE OF PENTACLES</text><circle cx="139" cy="180" r="25.5" fill="#d6c25f"/><circle cx="139" cy="180" r="21.6" fill="#223218"/><polygon points="139,161.4 143.2,174.3 156.7,174.2 145.7,182.2 149.9,195.1 139,187.1 128.1,195.1 132.3,182.2 121.3,174.2 134.8,174.3" fill="#d6c25f"/><circle cx="221" cy="180" r="25.5" fill="#d6c25f"/><circle cx="221" cy="180" r="21.6" fill="#223218"/><polygon points="221,161.4 225.2,174.3 238.7,174.2 227.7,182.2 231.9,195.1 221,187.1 210.1,195.1 214.3,182.2 203.3,174.2 216.8,174.3" fill="#d6c25f"/><circle cx="180" cy="276" r="25.5" fill="#d6c25f"/><circle cx="180" cy="276" r="21.6" fill="#223218"/><polygon points="180,257.4 184.2,270.3 197.7,270.2 186.7,278.2 190.9,291.1 180,283.1 169.1,291.1 173.3,278.2 162.3,270.2 175.8,270.3" fill="#d6c25f"/><circle cx="139" cy="372" r="25.5" fill="#d6c25f"/><circle cx="139" cy="372" r="21.6" fill="#223218"/><polygon points="139,353.4 143.2,366.3 156.7,366.2 145.7,374.2 149.9,387.1 139,379.1 128.1,387.1 132.3,374.2 121.3,366.2 134.8,366.3" fill="#d6c25f"/><circle cx="221" cy="372" r="25.5" fill="#d6c25f"/><circle cx="221" cy="372" r="21.6" fill="#223218"/><polygon points="221,353.4 225.2,366.3 238.7,366.2 227.7,374.2 231.9,387.1 221,379.1 210.1,387.1 214.3,374.2 203.3,366.2 216.8,366.3" fill="#d6c25f"/><g transform="translate(180 504) scale(1.5) translate(-180 -504)"><line x1="180" y1="491" x2="180" y2="517" fill="none" stroke="#9cc27a" stroke-width="2.5" stroke-linecap="round" stroke-linejoin="round"/><line x1="168.7" y1="497.5" x2="191.3" y2="510.5" fill="none" stroke="#9cc27a" stroke-width="2.5" stroke-linecap="round" stroke-linejoin="round"/><line x1="191.3" y1="497.5" x2="168.7" y2="510.5" fill="none" stroke="#9cc27a" stroke-width="2.5" stroke-linecap="round" stroke-linejoin="round"/></g></svg>
