<svg xmlns="http://www.w3.org/2000/svg" viewBox="0 0 360 620" width="360" height="620" role="img" aria-label="Six of Cups"><title>Six of Cups</title><rect width="360" height="620" rx="18" fill="#0d2433"/><rect x="12" y="12" width="336" height="596" rx="12" fill="#123245" stroke="#6cc6dc" stroke-width="2.5"/><rect x="20" y="20" width="320" height="580" rx="8" fill="none" stroke="#6cc6dc" stroke-width="1" opacity="0.55"/><text x="180" y="66" font-family="Georgia, 'Times New Roman', serif" font-size="30" letter-spacing="2" text-anchor="middle" fill="#6cc6dc">VI</text><line x1="60" y1="84" x2="300" y2="84" stroke="#6cc6dc" stroke-width="1" opacity="0.5"/><line x1="40" y1="540" x2="320" y2="540" stroke="#6cc6dc" stroke-width="1" opacity="0.5"/><text x="180" y="580" font-family="Georgia, 'Times New Roman', serif" font-size="20" letter-spacing="1.5" text-anchor="middle" fill="#eefbff">SIX OF CUPS</text><path d="M115.6,141.4 H162.4 C162.4,168.4 151.6,177.4 139,177.4 C126.4,177.4 115.6,168.4 115.6,141.4Z" fill="#bfe9f2" stroke="#6cc6dc" stroke-width="2.7"/><rect x="135.4" y="177.4" width="7.2" height="18" fill="#6cc6dc"/><path d="M121,204.4 Q139,188.2 157,204.4Z" fill="#6cc6dc"/><path d="M197.6,141.4 H244.4 C244.4,168.4 233.6,177.4 221,177.4 C208.4,177.4 197.6,168.4 197.6,141.4Z" fill="#bfe9f2" stroke="#6cc6dc" stroke-width="2.7"/><rect x="217.4" y="177.4" width="7.2" height="18" fill="#6cc6dc"/><path d="M203,204.4 Q221,188.2 239,204.4Z" fill="#6cc6dc"/><path d="M115.6,245.4 H162.4 C162.4,272.4 151.6,281.4 139,281.4 C126.4,281.4 115.6,272.4 115.6,245.4Z" fill="#bfe9f2" stroke="#6cc6dc" stroke-width="2.7"/><rect x="135.4" y="281.4" width="7.2" height="18" fill="#6cc6dc"/><path d="M121,308.4 Q139,292.2 157,308.4Z" fill="#6cc6dc"/><path d="M197.6,245.4 H244.4 C244.4,272.4 233.6,281.4 221,281.4 C208.4,281.4 197.6,272.4 197.6,245.4Z" fill="#bfe9f2" stroke="#6cc6dc" stroke-width="2.7"/><rect x="217.4" y="281.4" width="7.2" height="18" fill="#6cc6dc"/><path d="M203,308.4 Q221,292.2 239,308.4Z" fill="#6cc6dc"/><path d="M115.6,349.4 H162.4 C162.4,376.4 151.6,385.4 139,385.4 C126.4,385.4 115.6,376.4 115.6,349.4Z" fill="#bfe9f2" stroke="#6cc6dc" stroke-width="2.7"/><rect x="135.4" y="385.4" width="7.2" height="18" fill="#6cc6dc"/><path d="M121,412.4 Q139,396.2 157,412.4Z" fill="#6cc6dc"/><path d="M197.6,349.4 H244.4 C244.4,376.4 233.6,385.4 221,385.4 C208.4,385.4 197.6,376.4 197.6,349.4Z" fill="#bfe9f2" stroke="#6cc6dc" stroke-width="2.7"/><rect x="217.4" y="385.4" width="7.2" height="18" fill="#6cc6dc"/><path d="M203,412.4 Q221,396.2 239,412.4Z" fill="#6cc6dc"/><g transform="translate(180 504) scale(1.5) translate(-180 -504)"><circle cx="180" cy="504" r="4" fill="none" stroke="#bfe9f2" stroke-width="2.5" stroke-linecap="round" stroke-linejoin="round"/><ellipse cx="189" cy="504" rx="5" ry="3" transform="rotate(0 189 504)" fill="none" stroke="#bfe9f2" stroke-width="2.5" stroke-linecap="round" stroke-linejoin="round"/><ellipse cx="182.8" cy="512.6" rx="5" ry="3" transform="rotate(72 182.8 512.6)" fill="none" stroke="#bfe9f2" stroke-width="2.5" stroke-linecap="round" stroke-linejoin="round"/><ellipse cx="172.7" cy="509.3" rx="5" ry="3" transform="rotate(144 172.7 509.3)" fill="none" stroke="#bfe9f2" stroke-width="2.5" stroke-linecap="round" stroke-linejoin="round"/><ellipse cx="172.7" cy="498.7" rx="5" ry="3" transform="rotate(216 172.7 498.7)" fill="none" stroke="#bfe9f2" stroke-width="2.5" stroke-linecap="round" stroke-linejoin="round"/><ellipse cx="182.8" cy="495.4" rx="5" ry="3" transform="rotate(288 182.8 495.4)" fill="none" stroke="#bfe9f2" stroke-width="2.5" stroke-linecap="round" stroke-linejoin="round"/></g></svg>
