<svg xmlns="http://www.w3.org/2000/svg" viewBox="0 0 360 620" width="360" height="620" role="img" aria-label="Strength"><title>Strength</title><rect width="360" height="620" rx="18" fill="#1d1030"/><rect x="12" y="12" width="336" height="596" rx="12" fill="#28173f" stroke="#e8c27a" stroke-width="2.5"/><rect x="20" y="20" width="320" height="580" rx="8" fill="none" stroke="#e8c27a" stroke-width="1" opacity="0.55"/><text x="180" y="66" font-family="Georgia, 'Times New Roman', serif" font-size="30" letter-spacing="2" text-anchor="middle" fill="#e8c27a">VIII</text><line x1="60" y1="84" x2="300" y2="84" stroke="#e8c27a" stroke-width="1" opacity="0.5"/><line x1="40" y1="540" x2="320" y2="540" stroke="#e8c27a" stroke-width="1" opacity="0.5"/><text x="180" y="580" font-family="Georgia, 'Times New Roman', serif" font-size="20" letter-spacing="1.5" text-anchor="middle" fill="#f4eefc">STRENGTH</text><path d="M180,160 C189.8,144.6 208,144.6 208,160 S189.8,175.4 180,160 S152,144.6 152,160 S170.2,175.4 180,160Z" fill="none" stroke="#e8c27a" stroke-width="3"/><polygon points="193.5,253.2 199.8,275.5 219,262.5 217.3,285.6 239.8,279.9 230.2,301 253.3,303.3 237.1,319.9 258,330 237.1,340.1 253.3,356.7 230.2,359 239.8,380.1 217.3,374.4 219,397.5 199.8,384.5 193.5,406.8 180,388 166.5,406.8 160.2,384.5 141,397.5 142.7,374.4 120.2,380.1 129.8,359 106.7,356.7 122.9,340.1 102,330 122.9,319.9 106.7,303.3 129.8,301 120.2,279.9 142.7,285.6 141,262.5 160.2,275.5 166.5,253.2 180,272" fill="#e8c27a"/><circle cx="180" cy="330" r="52" fill="#28173f" stroke="#e8c27a" stroke-width="3"/><circle cx="162" cy="318" r="5" fill="#e8c27a"/><circle cx="198" cy="318" r="5" fill="#e8c27a"/><path d="M166,350 q14,12 28,0 M180,336 v14" stroke="#e8c27a" stroke-width="3" fill="none" stroke-linecap="round" stroke-linejoin="round"/><circle cx="90" cy="247.1" r="4.5" fill="#f4eefc"/><circle cx="95.1" cy="250.8" r="4.5" fill="#f4eefc"/><circle cx="93.2" cy="256.9" r="4.5" fill="#f4eefc"/><circle cx="86.8" cy="256.9" r="4.5" fill="#f4eefc"/><circle cx="84.9" cy="250.8" r="4.5" fill="#f4eefc"/><circle cx="90" cy="252.5" r="3.1" fill="#b794ff"/><circle cx="135" cy="235.8" r="4.5" fill="#f4eefc"/><circle cx="140.1" cy="239.6" r="4.5" fill="#f4eefc"/><circle cx="138.2" cy="245.6" r="4.5" fill="#f4eefc"/><circle cx="131.8" cy="245.6" r="4.5" fill="#f4eefc"/><circle cx="129.9" cy="239.6" r="4.5" fill="#f4eefc"/><circle cx="135" cy="241.2" r="3.1" fill="#b794ff"/><circle cx="180" cy="224.6" r="4.5" fill="#f4eefc"/><circle cx="185.1" cy="228.3" r="4.5" fill="#f4eefc"/><circle cx="183.2" cy="234.4" r="4.5" fill="#f4eefc"/><circle cx="176.8" cy="234.4" r="4.5" fill="#f4eefc"/><circle cx="174.9" cy="228.3" r="4.5" fill="#f4eefc"/><circle cx="180" cy="230" r="3.1" fill="#b794ff"/><circle cx="225" cy="235.8" r="4.5" fill="#f4eefc"/><circle cx="230.1" cy="239.6" r="4.5" fill="#f4eefc"/><circle cx="228.2" cy="245.6" r="4.5" fill="#f4eefc"/><circle cx="221.8" cy="245.6" r="4.5" fill="#f4eefc"/><circle cx="219.9" cy="239.6" r="4.5" fill="#f4eefc"/><circle cx="225" cy="241.2" r="3.1" fill="#b794ff"/><circle cx="270" cy="247.1" r="4.5" fill="#f4eefc"/><circle cx="275.1" cy="250.8" r="4.5" fill="#f4eefc"/><circle cx="273.2" cy="256.9" r="4.5" fill="#f4eefc"/><circle cx="266.8" cy="256.9" r="4.5" fill="#f4eefc"/><circle cx="264.9" cy="250.8" r="4.5" fill="#f4eefc"/><circle cx="270" cy="252.5" r="3.1" fill="#b794ff"/></svg>
