<svg xmlns="http://www.w3.org/2000/svg" viewBox="0 0 360 620" width="360" height="620" role="img" aria-label="Ten of Wands"><title>Ten of Wands</title><rect width="360" height="620" rx="18" fill="#33130c"/><rect x="12" y="12" width="336" height="596" rx="12" fill="#431c11" stroke="#f39a5b" stroke-width="2.5"/><rect x="20" y="20" width="320" height="580" rx="8" fill="none" stroke="#f39a5b" stroke-width="1" opacity="0.55"/><text x="180" y="66" font-family="Georgia, 'Times New Roman', serif" font-size="30" letter-spacing="2" text-anchor="middle" fill="#f39a5b">X</text><line x1="60" y1="84" x2="300" y2="84" stroke="#f39a5b" stroke-width="1" opacity="0.5"/><line x1="40" y1="540" x2="320" y2="540" stroke="#f39a5b" stroke-width="1" opacity="0.5"/><text x="180" y="580" font-family="Georgia, 'Times New Roman', serif" font-size="20" letter-spacing="1.5" text-anchor="middle" fill="#fff1de">TEN OF WANDS</text><rect x="135.6" y="119.9" width="6.8" height="62.6" rx="3.4" fill="#f39a5b"/><ellipse cx="147.2" cy="133.7" rx="6.1" ry="3.1" fill="#ffd08a" transform="rotate(-35 147.2 133.7)"/><ellipse cx="130.8" cy="148.1" rx="6.1" ry="3.1" fill="#ffd08a" transform="rotate(35 130.8 148.1)"/><ellipse cx="146.5" cy="163.7" rx="5.4" ry="2.7" fill="#ffd08a" transform="rotate(-35 146.5 163.7)"/><rect x="217.6" y="119.9" width="6.8" height="62.6" rx="3.4" fill="#f39a5b"/><ellipse cx="229.2" cy="133.7" rx="6.1" ry="3.1" fill="#ffd08a" transform="rotate(-35 229.2 133.7)"/><ellipse cx="212.8" cy="148.1" rx="6.1" ry="3.1" fill="#ffd08a" transform="rotate(35 212.8 148.1)"/><ellipse cx="228.5" cy="163.7" rx="5.4" ry="2.7" fill="#ffd08a" transform="rotate(-35 228.5 163.7)"/><rect x="176.6" y="161.5" width="6.8" height="62.6" rx="3.4" fill="#f39a5b"/><ellipse cx="188.2" cy="175.3" rx="6.1" ry="3.1" fill="#ffd08a" transform="rotate(-35 188.2 175.3)"/><ellipse cx="171.8" cy="189.7" rx="6.1" ry="3.1" fill="#ffd08a" transform="rotate(35 171.8 189.7)"/><ellipse cx="187.5" cy="205.3" rx="5.4" ry="2.7" fill="#ffd08a" transform="rotate(-35 187.5 205.3)"/><rect x="135.6" y="203.1" width="6.8" height="62.6" rx="3.4" fill="#f39a5b"/><ellipse cx="147.2" cy="216.9" rx="6.1" ry="3.1" fill="#ffd08a" transform="rotate(-35 147.2 216.9)"/><ellipse cx="130.8" cy="231.3" rx="6.1" ry="3.1" fill="#ffd08a" transform="rotate(35 130.8 231.3)"/><ellipse cx="146.5" cy="246.9" rx="5.4" ry="2.7" fill="#ffd08a" transform="rotate(-35 146.5 246.9)"/><rect x="217.6" y="203.1" width="6.8" height="62.6" rx="3.4" fill="#f39a5b"/><ellipse cx="229.2" cy="216.9" rx="6.1" ry="3.1" fill="#ffd08a" transform="rotate(-35 229.2 216.9)"/><ellipse cx="212.8" cy="231.3" rx="6.1" ry="3.1" fill="#ffd08a" transform="rotate(35 212.8 231.3)"/><ellipse cx="228.5" cy="246.9" rx="5.4" ry="2.7" fill="#ffd08a" transform="rotate(-35 228.5 246.9)"/><rect x="135.6" y="286.3" width="6.8" height="62.6" rx="3.4" fill="#f39a5b"/><ellipse cx="147.2" cy="300.1" rx="6.1" ry="3.1" fill="#ffd08a" transform="rotate(-35 147.2 300.1)"/><ellipse cx="130.8" cy="314.5" rx="6.1" ry="3.1" fill="#ffd08a" transform="rotate(35 130.8 314.5)"/><ellipse cx="146.5" cy="330.1" rx="5.4" ry="2.7" fill="#ffd08a" transform="rotate(-35 146.5 330.1)"/><rect x="217.6" y="286.3" width="6.8" height="62.6" rx="3.4" fill="#f39a5b"/><ellipse cx="229.2" cy="300.1" rx="6.1" ry="3.1" fill="#ffd08a" transform="rotate(-35 229.2 300.1)"/><ellipse cx="212.8" cy="314.5" rx="6.1" ry="3.1" fill="#ffd08a" transform="rotate(35 212.8 314.5)"/><ellipse cx="228.5" cy="330.1" rx="5.4" ry="2.7" fill="#ffd08a" transform="rotate(-35 228.5 330.1)"/><rect x="176.6" y="327.9" width="6.8" height="62.6" rx="3.4" fill="#f39a5b"/><ellipse cx="188.2" cy="341.7" rx="6.1" ry="3.1" fill="#ffd08a" transform="rotate(-35 188.2 341.7)"/><ellipse cx="171.8" cy="356.1" rx="6.1" ry="3.1" fill="#ffd08a" transform="rotate(35 171.8 356.1)"/><ellipse cx="187.5" cy="371.7" rx="5.4" ry="2.7" fill="#ffd08a" transform="rotate(-35 187.5 371.7)"/><rect x="135.6" y="369.5" width="6.8" height="62.6" rx="3.4" fill="#f39a5b"/><ellipse cx="147.2" cy="383.3" rx="6.1" ry="3.1" fill="#ffd08a" transform="rotate(-35 147.2 383.3)"/><ellipse cx="130.8" cy="397.7" rx="6.1" ry="3.1" fill="#ffd08a" transform="rotate(35 130.8 397.7)"/><ellipse cx="146.5" cy="413.3" rx="5.4" ry="2.7" fill="#ffd08a" transform="rotate(-35 146.5 413.3)"/><rect x="217.6" y="369.5" width="6.8" height="62.6" rx="3.4" fill="#f39a5b"/><ellipse cx="229.2" cy="383.3" rx="6.1" ry="3.1" fill="#ffd08a" transform="rotate(-35 229.2 383.3)"/><ellipse cx="212.8" cy="397.7" rx="6.1" ry="3.1" fill="#ffd08a" transform="rotate(35 212.8 397.7)"/><ellipse cx="228.5" cy="413.3" rx="5.4" ry="2.7" fill="#ffd08a" transform="rotate(-35 228.5 413.3)"/><g transform="translate(180 504) scale(1.5) translate(-180 -504)"><rect x="164" y="498" width="32" height="14" rx="4" fill="none" stroke="#ffd08a" stroke-width="2.5" stroke-linecap="round" stroke-linejoin="round"/><line x1="172" y1="498" x2="172" y2="512" fill="none" stroke="#ffd08a" stroke-width="2.5" stroke-linecap="round" stroke-linejoin="round"/><line x1="188" y1="498" x2="188" y2="512" fill="none" stroke="#ffd08a" stroke-width="2.5" stroke-linecap="round" stroke-linejoin="round"/></g></svg>
