<svg xmlns="http://www.w3.org/2000/svg" viewBox="0 0 360 620" width="360" height="620" role="img" aria-label="The World"><title>The World</title><rect width="360" height="620" rx="18" fill="#1d1030"/><rect x="12" y="12" width="336" height="596" rx="12" fill="#28173f" stroke="#e8c27a" stroke-width="2.5"/><rect x="20" y="20" width="320" height="580" rx="8" fill="none" stroke="#e8c27a" stroke-width="1" opacity="0.55"/><text x="180" y="66" font-family="Georgia, 'Times New Roman', serif" font-size="30" letter-spacing="2" text-anchor="middle" fill="#e8c27a">XXI</text><line x1="60" y1="84" x2="300" y2="84" stroke="#e8c27a" stroke-width="1" opacity="0.5"/><line x1="40" y1="540" x2="320" y2="540" stroke="#e8c27a" stroke-width="1" opacity="0.5"/><text x="180" y="580" font-family="Georgia, 'Times New Roman', serif" font-size="20" letter-spacing="1.5" text-anchor="middle" fill="#f4eefc">THE WORLD</text><ellipse cx="180" cy="300" rx="82" ry="132" fill="none" stroke="#b794ff" stroke-width="14" stroke-dasharray="10 5"/><ellipse cx="180" cy="300" rx="68" ry="118" fill="none" stroke="#e8c27a" stroke-width="2"/><path d="M166,160 l28,16 M194,160 l-28,16 M166,424 l28,16 M194,424 l-28,16" stroke="#ff9b8a" stroke-width="5" stroke-linecap="round"/><circle cx="180" cy="250" r="14" fill="#f4eefc"/><path d="M150,280 C190,260 210,310 170,330 C210,350 190,380 160,390" stroke="#b794ff" stroke-width="10" stroke-linecap="round" fill="none"/><line x1="140" y1="290" x2="136" y2="330" stroke="#e8c27a" stroke-width="3" fill="none" stroke-linecap="round" stroke-linejoin="round"/><line x1="214" y1="294" x2="220" y2="330" stroke="#e8c27a" stroke-width="3" fill="none" stroke-linecap="round" stroke-linejoin="round"/><circle cx="65" cy="145" r="18" fill="#28173f" stroke="#e8c27a" stroke-width="2"/><circle cx="295" cy="145" r="18" fill="#28173f" stroke="#e8c27a" stroke-width="2"/><circle cx="65" cy="450" r="18" fill="#28173f" stroke="#e8c27a" stroke-width="2"/><circle cx="295" cy="450" r="18" fill="#28173f" stroke="#e8c27a" stroke-width="2"/><path d="M55,145 q10,-14 20,0" stroke="#e8c27a" stroke-width="3" fill="none" stroke-linecap="round" stroke-linejoin="round"/><path d="M285,150 l10,-10 l10,10" stroke="#e8c27a" stroke-width="3" fill="none" stroke-linecap="round" stroke-linejoin="round"/><path d="M55,445 q-4,-12 6,-12 M75,445 q4,-12 -6,-12" stroke="#e8c27a" stroke-width="3" fill="none" stroke-linecap="round" stroke-linejoin="round"/><polygon points="295,440 296.6,444.2 300,441.3 299.2,445.8 303.7,445 300.8,448.4 305,450 300.8,451.6 303.7,455 299.2,454.2 300,458.7 296.6,455.8 295,460 293.4,455.8 290,458.7 290.8,454.2 286.3,455 289.2,451.6 285,450 289.2,448.4 286.3,445 290.8,445.8 290,441.3 293.4,444.2" fill="#e8c27a"/></svg>
